<svg xmlns="http://www.w3.org/2000/svg" width="16" height="16" viewBox="0 0 16 16">
  <defs>
    <linearGradient id="body" x1="0" y1="0" x2="0.35" y2="1">
      <stop offset="0" stop-color="#0d9488"/>
      <stop offset="1" stop-color="#086058"/>
    </linearGradient>
    <linearGradient id="sheen" x1="0" y1="0" x2="0" y2="1">
      <stop offset="0" stop-color="#ffffff" stop-opacity="0.32"/>
      <stop offset="0.3" stop-color="#ffffff" stop-opacity="0"/>
    </linearGradient>
  </defs>
  <g style="filter:drop-shadow(0 0.6px 1px rgba(0,0,0,0.35))">
    <path fill="url(#body)" stroke="#053430" stroke-width="0.4" stroke-linejoin="round" d="M3.5 6.5A.5.5 0 0 1 4 7v1a4 4 0 0 0 8 0V7a.5.5 0 0 1 1 0v1a5 5 0 0 1-4.5 4.975V15h3a.5.5 0 0 1 0 1h-7a.5.5 0 0 1 0-1h3v-2.025A5 5 0 0 1 3 8V7a.5.5 0 0 1 .5-.5"/>
    <path fill="url(#body)" stroke="#053430" stroke-width="0.4" stroke-linejoin="round" d="M10 8a2 2 0 1 1-4 0V3a2 2 0 1 1 4 0zM8 0a3 3 0 0 0-3 3v5a3 3 0 0 0 6 0V3a3 3 0 0 0-3-3"/>
    <path fill="url(#sheen)" d="M3.5 6.5A.5.5 0 0 1 4 7v1a4 4 0 0 0 8 0V7a.5.5 0 0 1 1 0v1a5 5 0 0 1-4.5 4.975V15h3a.5.5 0 0 1 0 1h-7a.5.5 0 0 1 0-1h3v-2.025A5 5 0 0 1 3 8V7a.5.5 0 0 1 .5-.5"/>
    <path fill="url(#sheen)" d="M10 8a2 2 0 1 1-4 0V3a2 2 0 1 1 4 0zM8 0a3 3 0 0 0-3 3v5a3 3 0 0 0 6 0V3a3 3 0 0 0-3-3"/>
  </g>
</svg>
