<svg xmlns="http://www.w3.org/2000/svg" width="16" height="16" viewBox="0 0 16 16">
  <defs>
    <linearGradient id="body" x1="0" y1="0" x2="0.35" y2="1">
      <stop offset="0" stop-color="#a855f7"/>
      <stop offset="1" stop-color="#6d37a1"/>
    </linearGradient>
    <linearGradient id="sheen" x1="0" y1="0" x2="0" y2="1">
      <stop offset="0" stop-color="#ffffff" stop-opacity="0.32"/>
      <stop offset="0.3" stop-color="#ffffff" stop-opacity="0"/>
    </linearGradient>
  </defs>
  <g style="filter:drop-shadow(0 0.6px 1px rgba(0,0,0,0.35))">
    <path fill="url(#body)" stroke="#3b1e56" stroke-width="0.4" stroke-linejoin="round" fill-rule="evenodd" d="M2.23 4.35A6 6 0 0 0 2 6c0 1.691.7 3.22 1.826 4.31.203.196.359.4.453.619l.762 1.769A.5.5 0 0 0 5.5 13a.5.5 0 0 0 0 1 .5.5 0 0 0 0 1l.224.447a1 1 0 0 0 .894.553h2.764a1 1 0 0 0 .894-.553L10.5 15a.5.5 0 0 0 0-1 .5.5 0 0 0 0-1 .5.5 0 0 0 .288-.091L9.878 12H5.83l-.632-1.467a3 3 0 0 0-.676-.941 4.98 4.98 0 0 1-1.455-4.405zm1.588-2.653.708.707a5 5 0 0 1 7.07 7.07l.707.707a6 6 0 0 0-8.484-8.484zm-2.172-.051a.5.5 0 0 1 .708 0l12 12a.5.5 0 0 1-.708.708l-12-12a.5.5 0 0 1 0-.708"/>
    <path fill="url(#sheen)" fill-rule="evenodd" d="M2.23 4.35A6 6 0 0 0 2 6c0 1.691.7 3.22 1.826 4.31.203.196.359.4.453.619l.762 1.769A.5.5 0 0 0 5.5 13a.5.5 0 0 0 0 1 .5.5 0 0 0 0 1l.224.447a1 1 0 0 0 .894.553h2.764a1 1 0 0 0 .894-.553L10.5 15a.5.5 0 0 0 0-1 .5.5 0 0 0 0-1 .5.5 0 0 0 .288-.091L9.878 12H5.83l-.632-1.467a3 3 0 0 0-.676-.941 4.98 4.98 0 0 1-1.455-4.405zm1.588-2.653.708.707a5 5 0 0 1 7.07 7.07l.707.707a6 6 0 0 0-8.484-8.484zm-2.172-.051a.5.5 0 0 1 .708 0l12 12a.5.5 0 0 1-.708.708l-12-12a.5.5 0 0 1 0-.708"/>
  </g>
</svg>
